<svg width="208" height="39" viewBox="0 0 208 39" fill="none" xmlns="http://www.w3.org/2000/svg">
<path d="M37.1703 22.4506C37.1045 22.1263 37.0085 21.8073 36.8804 21.5009C36.8342 21.3886 36.7861 21.2799 36.7488 21.2087C34.7814 17.474 32.7233 16.3497 28.9789 10.9117C26.8532 7.82563 26.1434 0.279741 19.2451 0V9.3544C20.0545 9.37935 20.798 9.61989 21.442 10.1473C21.9507 10.5642 22.3118 11.0952 22.5893 11.6868C22.9077 12.3603 23.123 13.0694 23.267 13.7964C23.4271 14.6 23.5659 15.4071 23.6993 16.2161C23.8701 17.2477 24.0177 18.2847 24.2863 19.2986C24.4535 19.9293 24.667 20.5423 24.9907 21.1107C25.2896 21.6363 25.6774 22.0746 26.2128 22.3668C26.645 22.6038 27.1129 22.7125 27.6003 22.741C27.7194 22.7481 27.8386 22.7481 27.956 22.7553C28.2673 22.7749 28.511 23.0332 28.5181 23.3468C28.5253 23.6622 28.294 23.933 27.9863 23.9651C27.8956 23.974 27.8013 23.9669 27.7088 23.9669C27.0026 23.9491 26.3266 23.8029 25.6951 23.4751C24.9356 23.0831 24.3788 22.4844 23.9519 21.7557C23.5623 21.0911 23.3097 20.373 23.1105 19.6318C22.897 18.8371 22.753 18.0282 22.6196 17.2157C22.447 16.168 22.31 15.1132 22.0806 14.0744C21.924 13.3706 21.7301 12.681 21.3975 12.036C21.1645 11.587 20.8674 11.195 20.4334 10.9224C20.0705 10.6961 19.6703 10.5945 19.2469 10.5714C19.2451 10.5714 19.2451 10.5714 19.2433 10.5714V27.689C21.6714 27.8922 23.3453 29.2392 24.0604 30.6183C24.2276 30.9426 24.2436 31.3239 24.1209 31.6678C23.806 32.5498 23.1728 34.3102 22.8988 35.1672C22.8134 35.4309 22.6711 35.9441 22.6124 36.2381C22.4257 37.1753 22.4257 37.7383 21.2961 37.7383H21.0915H19.2665H16.0664C14.9386 37.7383 14.9386 37.1753 14.75 36.2381C14.6913 35.9459 14.5472 35.4309 14.4636 35.1672C14.1506 34.1926 13.375 32.0473 13.1313 31.3577C13.0886 31.2384 13.0868 31.1065 13.1331 30.9889C13.7236 29.4886 15.474 27.9082 18.1209 27.6873V10.5749C17.8701 10.5892 17.6246 10.6266 17.3845 10.7086C16.833 10.8957 16.4346 11.268 16.1304 11.7509C15.8316 12.2213 15.6412 12.7398 15.4865 13.2708C15.2819 13.9782 15.1467 14.6998 15.0275 15.425C14.839 16.5671 14.6878 17.7163 14.4405 18.8478C14.2608 19.671 14.0385 20.4799 13.6792 21.2461C13.3608 21.9214 12.9481 22.5272 12.37 23.0083C11.7883 23.4911 11.1177 23.7816 10.3759 23.8956C10.0824 23.9401 9.78176 23.9597 9.4847 23.9704C9.15028 23.9829 8.9048 23.7691 8.85322 23.4448C8.79629 23.0938 9.07201 22.7624 9.42956 22.7535C9.79422 22.7446 10.1571 22.7161 10.5111 22.6216C11.26 22.4203 11.8221 21.9695 12.2419 21.328C12.5799 20.8095 12.8022 20.2394 12.9819 19.6514C13.222 18.8549 13.3697 18.0389 13.5084 17.2192C13.6881 16.1591 13.8571 15.0953 14.0509 14.0387C14.195 13.2547 14.412 12.4886 14.7447 11.7598C15.0418 11.1095 15.4367 10.5304 16.0059 10.0849C16.4826 9.71076 17.0251 9.48982 17.6211 9.40073C17.7865 9.37578 17.9555 9.36687 18.1245 9.35618V0C11.2208 0.279741 10.5129 7.82563 8.38717 10.9135C4.64274 16.3497 2.58286 17.4758 0.615474 21.2087C0.567446 21.3013 0.501629 21.4563 0.441149 21.6024C0.343313 21.8448 0.268603 22.0942 0.213459 22.3508C0.126297 22.7695 0 23.4412 0 23.8707C0 25.7255 0.830712 27.3861 2.14171 28.498C3.01333 29.2374 4.13043 29.6223 5.27244 29.6134C6.10315 29.608 7.34299 29.6437 8.70024 29.8486C11.1924 30.2227 12.1263 31.8477 13.005 34.1605C13.3643 35.1066 13.6436 36.5053 13.8944 37.3588C14.1861 38.2853 14.5704 38.6738 15.321 38.6738H20.042H20.3142H22.0397C22.7903 38.6738 23.1745 38.2853 23.4663 37.3588C23.7171 36.5053 23.9964 35.1066 24.3557 34.1605C25.2344 31.8477 26.1683 30.2227 28.6604 29.8486C30.0177 29.6437 31.2575 29.6062 32.0882 29.6134C33.2303 29.6223 34.3491 29.2374 35.219 28.498C36.5282 27.3861 37.3607 25.7255 37.3607 23.8707C37.3642 23.4751 37.2557 22.8693 37.1703 22.4506Z" fill="#755D54"/>
<path d="M53.3062 18.3185C54.3575 18.3185 55.3376 18.3185 56.3711 18.3185C56.5205 19.8615 56.6451 21.3155 56.8034 22.7676C56.9528 24.1307 57.2765 25.4207 58.4844 26.2938C59.0109 26.6733 59.5552 26.9085 60.1209 26.4345C60.667 25.9766 60.7506 25.4492 60.4197 24.7561C59.7349 23.3253 59.9252 21.7787 59.9981 20.2571C60.0035 20.1377 60.0426 20.0219 60.0568 19.9025C60.2383 18.3185 60.2365 18.3185 61.8161 18.2632C64.4523 18.1706 64.7352 18.4396 64.7352 21.0393C64.7352 22.6857 64.7103 24.3338 64.7441 25.9802C64.7654 26.9762 64.399 27.6747 63.5398 28.2146C59.5125 30.7447 51.78 30.4418 49.3697 24.12C47.7758 19.9363 48.08 15.7866 51.2196 12.2604C53.9341 9.21175 59.3435 8.5026 62.7447 10.6301C63.7924 11.2858 64.0645 11.8274 63.6056 12.6435C63.4455 12.9286 62.9777 13.219 62.6646 13.203C62.1149 13.1745 61.5635 12.9464 61.037 12.7397C56.8781 11.1094 53.2351 15.3055 53.3062 18.3185Z" fill="black"/>
<path d="M108.38 19.6799C108.38 17.0161 108.375 14.3523 108.384 11.6903C108.387 10.4395 108.809 9.96018 110.043 9.97622C112.233 10.0029 114.453 9.89426 116.604 10.215C120.948 10.8618 123.436 13.6984 123.724 18.0816C123.813 19.4447 123.771 20.8416 123.573 22.1922C122.993 26.1709 120.311 28.7741 116.273 29.1875C114.16 29.4049 112.016 29.3621 109.887 29.3746C108.887 29.3799 108.389 28.7955 108.386 27.7603C108.373 25.0662 108.38 22.3721 108.38 19.6799ZM112.866 19.6478C112.866 21.9552 112.875 24.2608 112.861 26.5683C112.856 27.3237 113.067 27.55 113.886 27.3451C115.622 26.9104 116.938 25.9482 117.851 24.4622C119.471 21.8251 119.573 18.9921 118.518 16.1733C117.731 14.069 116.269 12.5028 113.93 11.9932C112.968 11.7847 112.87 11.856 112.866 12.8164C112.861 15.0935 112.866 17.3706 112.866 19.6478Z" fill="black"/>
<path d="M180.032 29.6632C175.416 29.6614 171.984 26.6484 171.296 21.9854C170.924 19.4606 171.002 16.9715 171.97 14.5678C173.076 11.8185 175.097 10.1829 178.011 9.60021C182.095 8.78415 185.935 10.3486 187.716 13.6377C188.815 15.669 189.146 17.8944 188.988 20.1627C188.899 21.4349 188.693 22.7356 188.301 23.9454C187.136 27.5393 183.981 29.665 180.032 29.6632ZM184.491 19.7083C184.479 17.4704 184.094 15.5282 183.096 13.7304C181.584 11.0078 178.786 10.8742 177.267 13.5754C176.552 14.8476 176.059 16.3282 175.839 17.7715C175.416 20.5511 175.759 23.2826 177.436 25.6666C178.964 27.8386 181.053 27.8618 182.702 25.7842C182.942 25.4813 183.139 25.141 183.315 24.7971C184.162 23.1347 184.448 21.3476 184.491 19.7083Z" fill="black"/>
<path d="M85.1793 19.2451C85.1721 22.3971 84.5691 25.1232 82.3936 27.281C77.8487 31.7925 69.7551 29.8307 67.898 23.7121C66.9534 20.6011 66.9498 17.4313 68.227 14.3826C69.474 11.407 71.822 9.82122 75.0186 9.49693C77.3827 9.25817 79.6489 9.5593 81.6198 11.0257C83.8451 12.681 84.7737 15.0276 85.1028 17.6718C85.1757 18.2651 85.1632 18.8674 85.1793 19.2451ZM71.9057 19.3681C71.895 21.4848 72.3681 23.6942 73.2078 25.0716C73.9086 26.2208 74.7607 27.2721 76.2567 27.2917C77.7633 27.3095 78.594 26.2476 79.3305 25.1161C79.3465 25.0912 79.3607 25.0644 79.3749 25.0377C81.1893 21.2247 81.2641 17.4063 79.2095 13.6824C77.6904 10.9295 75.0133 10.9437 73.3625 13.6164C73.2362 13.8196 73.1206 14.0298 73.0174 14.2454C72.2401 15.8651 71.911 17.5827 71.9057 19.3681Z" fill="black"/>
<path d="M144.371 16.0468C144.371 17.5435 144.396 19.0402 144.359 20.537C144.343 21.1998 144.585 21.5454 145.241 21.6399C145.506 21.6773 145.757 21.8181 146.022 21.8466C146.671 21.9178 146.972 22.2207 146.947 22.9014C146.924 23.5339 146.794 23.9402 146.063 24.113C144.517 24.4783 144.531 24.5228 144.466 26.1389C144.439 26.7964 144.409 27.4539 144.35 28.1078C144.277 28.9132 143.669 29.4673 142.904 29.5706C142.018 29.6882 141.557 29.3158 141.365 28.4766C141.066 27.1777 140.636 25.9108 139.528 25.0752C139.038 24.7063 138.386 24.4159 137.783 24.3589C136.47 24.2342 135.141 24.3001 133.819 24.2573C132.048 24.2003 131.19 22.7909 132.138 21.2746C134.408 17.6398 136.765 14.0637 139.133 10.4948C139.366 10.1438 139.894 9.83908 140.317 9.78919C141.203 9.68228 142.119 9.69654 143.012 9.7785C143.918 9.86046 144.346 10.4093 144.361 11.3785C144.384 12.9341 144.368 14.4913 144.368 16.0468C144.368 16.0468 144.37 16.0468 144.371 16.0468ZM140.775 13.1888C139.117 15.915 137.498 18.5788 135.765 21.4261C137.37 21.4261 138.827 21.4474 140.28 21.394C140.438 21.3886 140.702 20.9521 140.711 20.7098C140.762 19.0367 140.762 17.3618 140.775 15.6869C140.78 14.8673 140.775 14.0459 140.775 13.1888Z" fill="black"/>
<path d="M162.184 17.3386C162.9 15.719 163.613 14.1011 164.328 12.4814C164.39 12.3407 164.451 12.1999 164.511 12.0592C165.648 9.41498 165.858 9.29382 168.715 9.62879C169.764 9.75174 170.026 10.2702 169.526 11.211C167.982 14.1136 166.326 16.9662 164.956 19.9489C164.308 21.3583 164.175 23.0118 163.871 24.5655C163.595 25.9749 163.362 27.3968 163.19 28.8222C163.106 29.51 162.731 29.5635 162.186 29.5884C161.601 29.6151 161.123 29.5403 161.007 28.8668C160.754 27.3897 160.423 25.9197 160.29 24.4319C160.071 21.9962 159.271 19.7903 158.077 17.6754C156.869 15.5354 155.756 13.342 154.607 11.17C154.132 10.272 154.39 9.77312 155.384 9.63948C155.507 9.62345 155.63 9.61276 155.752 9.61097C159.146 9.58247 158.561 9.47556 159.65 12.0912C160.379 13.8463 161.163 15.5782 161.925 17.3208C162.012 17.3279 162.099 17.3333 162.184 17.3386Z" fill="black"/>
<path d="M105.757 19.2113C105.75 22.3633 105.147 25.0894 102.971 27.2472C98.4264 31.7587 90.3328 29.7969 88.4739 23.6782C87.5293 20.5672 87.5258 17.3974 88.803 14.3488C90.0499 11.3732 92.398 9.78741 95.5945 9.46312C97.9586 9.22436 100.225 9.52548 102.196 10.9919C104.421 12.6472 105.35 14.9938 105.679 17.638C105.753 18.2295 105.739 18.8336 105.757 19.2113ZM92.4816 19.3325C92.4709 21.4492 92.9441 23.6586 93.7837 25.036C94.4845 26.1852 95.3366 27.2365 96.8326 27.2561C98.3393 27.2739 99.17 26.212 99.9064 25.0805C99.9224 25.0556 99.9366 25.0288 99.9509 25.0021C101.765 21.1891 101.84 17.3707 99.7854 13.6468C98.2663 10.8939 95.5892 10.9082 93.9384 13.5808C93.8121 13.784 93.6965 13.9942 93.5934 14.2098C92.816 15.8312 92.4869 17.5471 92.4816 19.3325Z" fill="black"/>
<path d="M199.953 27.2613C201.153 27.3041 202.034 26.6537 202.557 25.6595C202.97 24.8773 203.235 23.9401 203.279 23.0581C203.396 20.6847 203.361 18.3025 203.388 15.9238C203.405 14.4004 203.363 12.8716 203.466 11.3517C203.562 9.94053 204.291 9.42559 205.848 9.45945C207.216 9.48974 207.991 10.1062 207.991 11.4301C207.991 15.1487 208.062 18.878 207.804 22.5823C207.527 26.5664 205.49 28.8382 202.025 29.4814C201.351 29.6062 200.648 29.6436 199.951 29.6329C199.254 29.6436 198.553 29.6079 197.877 29.4814C194.412 28.8382 192.375 26.5664 192.097 22.5823C191.839 18.878 191.911 15.1487 191.911 11.4301C191.911 10.1062 192.686 9.48974 194.054 9.45945C195.612 9.42559 196.34 9.93875 196.436 11.3517C196.539 12.8698 196.496 14.3986 196.514 15.9238C196.541 18.3025 196.504 20.6847 196.623 23.0581C196.667 23.9401 196.932 24.8773 197.345 25.6595C197.871 26.6537 198.782 27.2987 199.953 27.2613Z" fill="black"/>
</svg>
